<?xml version="1.0" encoding="iso-8859-1"?>
<!-- Generator: Adobe Illustrator 19.0.0, SVG Export Plug-In . SVG Version: 6.00 Build 0)  -->
<svg version="1.1" id="Layer_1" xmlns="http://www.w3.org/2000/svg" xmlns:xlink="http://www.w3.org/1999/xlink" x="0px" y="0px"
	 viewBox="0 0 480 480" style="enable-background:new 0 0 480 480;" xml:space="preserve">
<circle style="fill:#88C5CC;" cx="240" cy="240" r="240"/>
<path style="fill:#B34136;" d="M368,384c0,8.8-7.2,16-16,16H128c-8.8,0-16-7.2-16-16V152c0-8.8,7.2-16,16-16h224c8.8,0,16,7.2,16,16
	V384z"/>
<path style="fill:#CC584C;" d="M352,356H128c-8.8,0-16-7.2-16-16V96c0-8.8,7.2-16,16-16h224c8.8,0,16,7.2,16,16v260H352z"/>
<path style="fill:#FFD464;" d="M368,112h16c4.4,0,8,3.6,8,8v32c0,4.4-3.6,8-8,8h-16V112z"/>
<rect x="140" y="368" style="fill:#F5F5F5;" width="228" height="20"/>
<g>
	<path style="fill:#B34136;" d="M128,80c-8.8,0-16,7.2-16,16v244c0,8.8,7.2,16,16,16h12V80H128z"/>
	<path style="fill:#B34136;" d="M244,204c-28.672,0-52,23.328-52,52s23.328,52,52,52s52-23.328,52-52S272.672,204,244,204z
		 M267.064,293.408c-2.236-8.508-8.304-17.624-16.064-21.26c3.016-2.732,5-7.14,5-12.148c0-8.28-5.372-15-12-15s-12,6.72-12,15
		c0,5.008,1.984,9.416,5,12.14c-7.756,3.64-13.828,12.756-16.06,21.264C208.4,285.64,200,271.8,200,256c0-24.26,19.74-44,44-44
		c24.256,0,44,19.74,44,44C288,271.8,279.6,285.64,267.064,293.408z"/>
</g>
<rect x="368" y="112" style="fill:#F2C95F;" width="4" height="48"/>
<path style="fill:#CC584C;" d="M368,168h16c4.4,0,8,3.6,8,8v32c0,4.4-3.6,8-8,8h-16V168z"/>
<rect x="368" y="168" style="fill:#B34136;" width="4" height="48"/>
<g>
</g>
<g>
</g>
<g>
</g>
<g>
</g>
<g>
</g>
<g>
</g>
<g>
</g>
<g>
</g>
<g>
</g>
<g>
</g>
<g>
</g>
<g>
</g>
<g>
</g>
<g>
</g>
<g>
</g>
</svg>
